<svg id="Logo" xmlns="http://www.w3.org/2000/svg" xmlns:xlink="http://www.w3.org/1999/xlink" width="117.281" height="44" viewBox="0 0 117.281 44">
  <defs>
    <style>
      .cls-1, .cls-3 {
        fill-rule: evenodd;
      }

      .cls-1 {
        filter: url(#filter);
      }

      .cls-2 {
        font-size: 35px;
        font-family: Ubuntu;
        font-weight: 700;
      }

      .cls-2, .cls-3 {
        fill: #0071dc;
      }
    </style>
    <filter id="filter" x="392.406" y="81.625" width="84.875" height="30.625" filterUnits="userSpaceOnUse">
      <feFlood result="flood" flood-color="#fff"/>
      <feComposite result="composite" operator="in" in2="SourceGraphic"/>
      <feBlend result="blend" in2="SourceGraphic"/>
    </filter>
  </defs>
  <path id="dhub" class="cls-1" d="M401.948,95.8a6.22,6.22,0,0,1,1.682.233,4.683,4.683,0,0,1,1.349.582v10.516c-0.272.053-.617,0.1-1.035,0.136s-0.875.058-1.368,0.058a3.887,3.887,0,0,1-3.4-1.629,7.345,7.345,0,0,1-1.146-4.308q0-5.587,3.919-5.588h0Zm8.539-14.164-5.508.931v9.236a10.785,10.785,0,0,0-1.83-.66,8.264,8.264,0,0,0-2.052-.233,8.74,8.74,0,0,0-3.678.737,7.321,7.321,0,0,0-2.717,2.134,9.926,9.926,0,0,0-1.7,3.4,15.755,15.755,0,0,0-.592,4.482,13.3,13.3,0,0,0,.684,4.4,9.243,9.243,0,0,0,1.978,3.337,8.555,8.555,0,0,0,3.179,2.115,11.714,11.714,0,0,0,4.288.738q1,0,2.089-.1t2.144-.253q1.053-.155,2.014-0.368t1.7-.447V81.639Zm10.683,30.112V96.229c0.344-.1.733-0.2,1.164-0.291a6.753,6.753,0,0,1,1.386-.136,2.688,2.688,0,0,1,2.533,1.164,8.329,8.329,0,0,1,.683,3.958v10.826h5.508V100.226a17.175,17.175,0,0,0-.388-3.8,7.576,7.576,0,0,0-1.331-2.949,6.14,6.14,0,0,0-2.513-1.921,9.966,9.966,0,0,0-3.937-.679,8.523,8.523,0,0,0-1.682.175,10.986,10.986,0,0,0-1.423.369V81.639l-5.508.931v29.181h5.508ZM454.032,91.34h-5.508V107.1q-0.518.078-1.183,0.135t-1.256.059a2.748,2.748,0,0,1-2.625-1.242,8.63,8.63,0,0,1-.7-4.036V91.34H437.25v11.37a16.943,16.943,0,0,0,.406,3.841,7.816,7.816,0,0,0,1.368,3.008,6.268,6.268,0,0,0,2.606,1.959,10.581,10.581,0,0,0,4.122.7,28.372,28.372,0,0,0,4.658-.369,29.223,29.223,0,0,0,3.622-.8V91.34ZM470.519,105.7a3.889,3.889,0,0,1-3.4,1.629q-0.739,0-1.368-.058c-0.419-.039-0.764-0.083-1.035-0.136V96.617a4.666,4.666,0,0,1,1.35-.582,6.2,6.2,0,0,1,1.682-.233q3.916,0,3.918,5.588A7.345,7.345,0,0,1,470.519,105.7Zm6.21-8.518a9.861,9.861,0,0,0-1.626-3.357,7.224,7.224,0,0,0-2.662-2.154,8.419,8.419,0,0,0-3.659-.757,9.414,9.414,0,0,0-2.144.233,9.978,9.978,0,0,0-1.923.66V81.639l-5.508.931v28.521q0.74,0.234,1.7.447t2.014,0.368q1.054,0.154,2.145.253t2.088,0.1a11.444,11.444,0,0,0,4.288-.757,8.661,8.661,0,0,0,3.179-2.154,9.413,9.413,0,0,0,1.978-3.376,13.48,13.48,0,0,0,.684-4.423A16.006,16.006,0,0,0,476.729,97.18Z" transform="translate(-360 -69)"/>
  <text id="e" class="cls-2" transform="translate(1.235 43.31) scale(1.258 1.32)">e</text>
  <path id="Forma_1" data-name="Forma 1" class="cls-3" d="M391.26,86.815a2.336,2.336,0,0,0-1.228-1.284V77.2a1.484,1.484,0,0,0,.211-0.551,1,1,0,0,0-.527-0.881l-14.245-6.684a0.779,0.779,0,0,0-.7,0l-14.245,6.684a0.884,0.884,0,0,0-.526.881,0.839,0.839,0,0,0,.6.808l4.877,1.763v6.61a0.929,0.929,0,0,0,.351.733,0.81,0.81,0,0,0,.807.111,23.271,23.271,0,0,1,16.947,0l0.316,0.073a0.81,0.81,0,0,0,.491-0.184,0.851,0.851,0,0,0,.386-0.733V79.179l3.509-1.212v7.565a2.426,2.426,0,0,0-1.228,3.121,2.245,2.245,0,0,0,2.982,1.285A2.428,2.428,0,0,0,391.26,86.815Z" transform="translate(-360 -69)"/>
</svg>
